<svg xmlns="http://www.w3.org/2000/svg" viewBox="80 0 300 320"><path fill="#f7a116" d="M86.93 0v16.266a169.37 169.37 0 006.449 46.558l9.437 33.192 72.051-71.91-12.219-6.13A169.267 169.267 0 0086.93 0zm0 0M299.129 18.16l-12.262 6.098 71.903 72.101 9.558-33.16a169.61 169.61 0 006.586-46.543V.391a169.45 169.45 0 00-75.785 17.77zm0 0"/><path fill="#3086cd" d="M336.465 176.8h-208v24.095a102.11 102.11 0 0046.723 80 474.364 474.364 0 0032.796 19.203c.489.254.961.543 1.45.797l22.558 11.906 24-13.442 25.793-14.398 3.2-1.809a102.463 102.463 0 0051.48-82.351zm0 0"/><path fill="#ffb531" d="M269.266 240.8h-73.602a32.005 32.005 0 01-20-7.015l-59.2-47.387a32.006 32.006 0 01-12-24.972v-59.371a32.006 32.006 0 019.376-22.63l45.25-45.25a31.999 31.999 0 0122.633-9.374H283.21a31.99 31.99 0 0122.629 9.375l45.25 45.25a31.99 31.99 0 019.375 22.629v59.37a31.982 31.982 0 01-12 24.973l-59.2 47.38a32.013 32.013 0 01-20 7.023zm0 0"/><path fill="#ffd896" d="M300.465 112.8c-25.055.45-47.207 16.388-55.598 40h-24.8c-8.391-23.613-30.544-39.55-55.602-40-24.63.415-46.512 15.829-55.2 38.88-5.18 13.09-1.199 28.027 9.81 36.8l56.59 45.305a32.005 32.005 0 0020 7.016h73.6c7.27 0 14.325-2.473 20-7.016l56.626-45.297c11.007-8.773 14.988-23.71 9.808-36.8-8.691-23.067-30.59-38.485-55.234-38.887zm0 0"/><path fill="#2e3e51" d="M224.465 120.8h16c8.836 0 16 7.165 16 16 0 8.837-7.164 16-16 16h-16c-8.836 0-16-7.163-16-16 0-8.835 7.164-16 16-16zm0 0"/><path fill="#e94f4f" d="M256.465 184.8c0 13.255-10.746 24-24 24s-24-10.745-24-24l24-8zm0 0"/><path fill="#2e3e51" d="M192.465 96.8c0 8.837-7.164 16-16 16s-16-7.163-16-16c0-8.835 7.164-16 16-16s16 7.165 16 16zm0 0M304.465 96.8c0 8.837-7.164 16-16 16s-16-7.163-16-16c0-8.835 7.164-16 16-16s16 7.165 16 16zm0 0"/><path fill="#ffd896" d="M168.465 48.8h16v16h-16zm0 0M280.465 48.8h16v16h-16zm0 0"/><path fill="#2e3e51" d="M281.809 156.36l-10.047 15.09a8.05 8.05 0 01-8.23 3.405l-23.067-4.617v-17.437h-16v17.437l-23.063 4.617a8.004 8.004 0 01-8.226-3.406l-10.055-15.09-13.312 8.88 10.058 15.081a23.946 23.946 0 0024.68 10.223l27.918-5.598 27.922 5.598a23.875 23.875 0 0024.68-10.223l10.054-15.082zm0 0"/></svg>